<svg xmlns="http://www.w3.org/2000/svg" width="49.031" height="41" viewBox="0 0 49.031 41">
  <defs>
    <style>
      .cls-1 {
        fill: #ff817e;
        fill-rule: evenodd;
      }
    </style>
  </defs>
  <path id="Icon" class="cls-1" d="M444.463,57.984S470.517,44.47,451.141,20a22.741,22.741,0,0,1-8.625,12.836s-9.191,7.6-4.02,18.353c0,0-4.172-3.021-8.829-1.97,0,0-5.181,1.92-9.668-.225,0,0,4.474,17.65,21.412,10.064A15.958,15.958,0,0,1,429.333,55.2s6.343,3.711,12.724,2.5a33.342,33.342,0,0,0,8.706-20.649S452.667,46.268,444.463,57.984Zm22.808-23.964A3.439,3.439,0,0,0,462.55,35.3a3.509,3.509,0,0,0,1.273,4.766,3.412,3.412,0,0,0,2.4.395,32.751,32.751,0,0,1-25.149,20.53s19.418-1.2,27.661-22.574a0.257,0.257,0,0,0,.011-0.054A3.5,3.5,0,0,0,467.271,34.019Z" transform="translate(-420 -20)"/>
</svg>
