<svg xmlns="http://www.w3.org/2000/svg" width="45.437" height="42" viewBox="0 0 45.437 42">
  <defs>
    <style>
      .cls-1 {
        fill: #fff;
        fill-rule: evenodd;
      }
    </style>
  </defs>
  <path id="https:_www.flaticon.com_free-icon_herbal_1499609_term_spa_page_1_position_11" data-name="https://www.flaticon.com/free-icon/herbal_1499609#term=spa&amp;page=1&amp;position=11" class="cls-1" d="M705.305,1867.78l-1.522-.12c-0.017.2-.38,4.85,2.282,7.7a6.968,6.968,0,0,0,5.325,2.11v-1.5a5.475,5.475,0,0,1-4.2-1.62C704.984,1871.99,705.3,1867.83,705.305,1867.78Zm20.538-3.06h9.888v1.5h-9.888v-1.5Zm-3.043,0h1.521v1.5H722.8v-1.5Zm-20.121-3h-1.938v9.75a9.068,9.068,0,0,0,8.367,8.97v4.53h21.3v-4.53a9.069,9.069,0,0,0,8.367-8.97v-9.75h-7.292l4.759-4.69c0.507-.4,3.936-3.13,4.592-3.78a4.786,4.786,0,0,0,.238-6.83,3.216,3.216,0,0,0-.238-0.23,4.942,4.942,0,0,0-6.911-.25c-0.086.08-.17,0.16-0.25,0.25-0.658.65-3.436,4.04-3.835,4.53l-11.155,11h-3.145a11.22,11.22,0,0,0,5.742-9.75v-8.25a0.752,0.752,0,0,0-.761-0.75H719a11.386,11.386,0,0,0-11.066,8.55,11.417,11.417,0,0,0-10.233-6.3,0.752,0.752,0,0,0-.761.75v6A11.22,11.22,0,0,0,702.679,1861.72Zm26.206,21.75h-12.17v-1.5h-1.522v1.5h-1.521v-1.5h-1.521v1.5h-1.522v-3h18.256v3Zm5.863-36.22a3.442,3.442,0,0,1,4.829-.18c0.062,0.06.123,0.12,0.181,0.18a3.307,3.307,0,0,1,.22,4.72,2.854,2.854,0,0,1-.22.22c-0.447.44-2.679,2.24-3.973,3.27l-4.357-4.29C732.476,1849.89,734.3,1847.69,734.748,1847.25Zm-4.341,5.03,4.249,4.19-1.207,1.19-4.249-4.19Zm-2.282,2.25,4.249,4.19-2.728,2.69-4.249-4.19Zm-3.8,3.75,3.489,3.44h-6.977Zm12.932,4.94v8.25a7.56,7.56,0,0,1-7.607,7.5H709.869a7.559,7.559,0,0,1-7.607-7.5v-8.25h34.991Zm-28.145-9a9.829,9.829,0,0,1,9.889-9.75h0.76v7.5a9.835,9.835,0,0,1-9.888,9.75h-0.761v-0.36c1.426-1.03,6.9-5.33,7.6-11.56l-1.512-.16c-0.523,4.64-4.168,8.21-6.09,9.8v-5.22Zm-10.649-7.47a9.814,9.814,0,0,1,9.128,9.72v3.13a15.665,15.665,0,0,1-5.373-7.14l-1.425.52a16.716,16.716,0,0,0,6.8,8.43v0.28a9.82,9.82,0,0,1-9.128-9.72v-5.22Zm38.256,2.44,1.521-1.5,1.076,1.06-1.521,1.5Zm-2.282,2.25,1.521-1.5,1.076,1.06-1.521,1.5Z" transform="translate(-696.938 -1842.97)"/>
</svg>
