<svg xmlns="http://www.w3.org/2000/svg" viewBox="0 0 49.01 40.99"><defs><style>.cls-1{fill:#fff;fill-rule:evenodd;}</style></defs><g id="Layer_2" data-name="Layer 2"><g id="Layer_1-2" data-name="Layer 1"><path id="Icon" class="cls-1" d="M24.46,38S50.52,24.47,31.14,0a22.8,22.8,0,0,1-8.62,12.84s-9.19,7.6-4,18.35c0,0-4.17-3-8.83-2,0,0-5.18,1.92-9.67-.23,0,0,4.47,17.65,21.41,10.07A16,16,0,0,1,9.33,35.2s6.35,3.71,12.73,2.5a33.31,33.31,0,0,0,8.7-20.65S32.67,26.27,24.46,38ZM47.27,14a3.44,3.44,0,0,0-4.7,1.25l0,0a3.52,3.52,0,0,0,1.27,4.77,3.41,3.41,0,0,0,2.4.39A32.73,32.73,0,0,1,21.08,41s19.41-1.2,27.66-22.57c0,0,0,0,0-.06A3.49,3.49,0,0,0,47.27,14Z"/></g></g></svg>